<svg width="640" height="630" viewBox="0 0 640 630" fill="none" xmlns="http://www.w3.org/2000/svg">
<path d="M471.908 286.945C471.667 242.455 491.601 208.875 531.95 184.144C509.374 151.534 475.27 133.593 430.238 130.077C387.608 126.683 341.015 155.171 323.963 155.171C305.95 155.171 264.641 131.289 232.218 131.289C165.21 132.38 94 185.235 94 292.764C94 324.526 99.7641 357.378 111.292 391.201C126.663 435.691 182.142 544.796 240.023 542.978C270.285 542.25 291.66 521.278 331.048 521.278C369.235 521.278 389.049 542.978 422.793 542.978C481.154 542.129 531.35 442.965 546 398.353C467.705 361.136 471.908 289.249 471.908 286.945ZM403.939 87.8899C436.723 48.6122 433.721 12.8501 432.76 0C403.819 1.69718 370.316 19.8813 351.222 42.3084C330.207 66.3114 317.838 96.0121 320.48 129.471C351.823 131.895 380.403 115.651 403.939 87.8899Z" fill="black"/>
</svg>
